<?xml version="1.0" encoding="UTF-8"?>
<svg version="1.1" xmlns="http://www.w3.org/2000/svg" width="259" height="246">
<path d="M0 0 C8.94056355 3.99206558 13.23583809 9.3481726 16.875 18.375 C17.66986374 20.70577231 18.30148903 22.97668139 18.875 25.375 C19.62523437 24.97667969 20.37546875 24.57835938 21.1484375 24.16796875 C34.39662572 17.31027938 48.04785446 12.75876518 62.875 17.375 C69.86219884 19.91118833 75.35877489 24.11266716 79.1640625 30.55859375 C84.0001843 41.1528318 83.22024728 53.07492288 81.875 64.375 C82.81859375 64.32279297 82.81859375 64.32279297 83.78125 64.26953125 C90.27261983 64.0642319 96.41824295 64.22780328 101.4453125 68.8046875 C106.68214505 74.81956375 106.37000321 80.77524477 105.875 88.375 C104.77271943 95.24305589 100.46183987 99.31755434 95.640625 104.078125 C93.63197531 106.13637158 93.63197531 106.13637158 94.09375 108.18359375 C94.3515625 108.90675781 94.609375 109.62992187 94.875 110.375 C95.02094876 112.99365761 95.10565443 115.5685938 95.125 118.1875 C95.1559375 119.21713867 95.1559375 119.21713867 95.1875 120.26757812 C95.23387509 126.39488675 93.85631723 131.03344327 89.8125 135.8125 C87.875 137.375 87.875 137.375 85.875 137.375 C85.90980469 137.95507812 85.94460937 138.53515625 85.98046875 139.1328125 C86.25173403 146.96075333 84.24925925 151.10134864 78.9375 156.875 C70.83416844 164.6499956 62.08075671 168.33088285 50.875 168.375 C51.37 169.014375 51.865 169.65375 52.375 170.3125 C54.44190198 174.53242488 55.01260812 177.77384613 53.875 182.375 C50.38333219 188.33238879 46.4530144 192.93810847 39.875 195.375 C37.13996529 195.4080851 34.58547923 195.32908612 31.875 195.125 C26.58342411 194.80523578 26.58342411 194.80523578 21.81640625 196.78125 C20.41352681 198.60289256 20.41352681 198.60289256 19.234375 200.5546875 C16.20348249 204.61329644 10.51785937 205.82738021 5.875 207.375 C-1.31275819 208.07317396 -6.31369898 207.79158878 -12.125 203.375 C-16.29320995 198.84640648 -19.12608129 194.07943297 -21.9375 188.625 C-22.34419922 187.85800781 -22.75089844 187.09101563 -23.16992188 186.30078125 C-26.125 180.64888393 -26.125 180.64888393 -26.125 178.375 C-27.07117188 178.62894531 -28.01734375 178.88289062 -28.9921875 179.14453125 C-65.72062301 188.78962335 -65.72062301 188.78962335 -76.23828125 182.7734375 C-81.75374157 178.68537375 -85.41381241 174.05600033 -87.125 167.375 C-87.35546875 163.8671875 -87.35546875 163.8671875 -87.3125 160.25 C-87.30605469 159.05117187 -87.29960938 157.85234375 -87.29296875 156.6171875 C-87.15761095 154.00446722 -86.89628695 151.85545882 -86.125 149.375 C-86.69347656 149.36082031 -87.26195313 149.34664062 -87.84765625 149.33203125 C-93.73472342 148.96838937 -97.93878396 147.67717771 -102.125 143.375 C-103.90144175 140.51622288 -104.37786471 138.40798446 -104.3125 135.0625 C-104.29960938 134.27746094 -104.28671875 133.49242187 -104.2734375 132.68359375 C-104.125 130.375 -104.125 130.375 -103.4375 126.625 C-103.06204965 122.7203164 -103.91778708 121.51603377 -106.125 118.375 C-108.72080974 110.29337901 -107.55930082 101.01097289 -104.125 93.375 C-102.30984649 90.5344926 -100.32650581 87.9256119 -98.125 85.375 C-99.31017741 82.87177775 -100.42993201 80.99614507 -102.1875 78.8125 C-104.97862732 75.30108176 -105.61823131 72.09071514 -105.51171875 67.6171875 C-104.4876002 61.67936883 -100.82752768 57.59882715 -96.0546875 54.16796875 C-93.90993752 52.80151457 -91.73860916 51.47559801 -89.5390625 50.19921875 C-88.74242188 49.59722656 -87.94578125 48.99523437 -87.125 48.375 C-87.125 45.17388885 -87.36360797 43.3410197 -88.125 40.375 C-89.07643084 32.6276346 -87.5309708 26.81706337 -83.125 20.375 C-78.38299174 14.90787883 -72.78152065 12.04021724 -65.6640625 11.0234375 C-54.90641709 10.4240379 -44.33316813 14.53485989 -36.125 21.375 C-35.7125 20.67375 -35.3 19.9725 -34.875 19.25 C-26.71868388 5.8503378 -16.76988893 -6.0565001 0 0 Z M73.875 42.375 C73.76542969 43.05304688 73.65585938 43.73109375 73.54296875 44.4296875 C72.43712481 50.9209015 70.91201908 57.11456137 68.875 63.375 C70.195 63.375 71.515 63.375 72.875 63.375 C75.08711746 56.32387561 75.07677072 49.72842179 74.875 42.375 C74.545 42.375 74.215 42.375 73.875 42.375 Z M41.875 149.375 C41.89626462 152.78114946 41.89626462 152.78114946 42.875 156.375 C47.20835342 159.54574641 51.63609674 160.12150468 56.875 160.375 C59.07255363 159.45410031 59.07255363 159.45410031 60.875 158.375 C60.08996094 158.06046875 59.30492187 157.7459375 58.49609375 157.421875 C52.70486473 155.06274858 47.20671353 152.64673331 41.875 149.375 Z M19.875 185.375 C19.875 185.705 19.875 186.035 19.875 186.375 C21.525 186.375 23.175 186.375 24.875 186.375 C24.875 186.045 24.875 185.715 24.875 185.375 C23.225 185.375 21.575 185.375 19.875 185.375 Z " fill="#FBFAFA" transform="translate(131.125,26.625)"/>
<path d="M0 0 C8.94056355 3.99206558 13.23583809 9.3481726 16.875 18.375 C17.66986374 20.70577231 18.30148903 22.97668139 18.875 25.375 C19.62523437 24.97667969 20.37546875 24.57835938 21.1484375 24.16796875 C34.39662572 17.31027938 48.04785446 12.75876518 62.875 17.375 C69.86219884 19.91118833 75.35877489 24.11266716 79.1640625 30.55859375 C84.0001843 41.1528318 83.22024728 53.07492288 81.875 64.375 C82.81859375 64.32279297 82.81859375 64.32279297 83.78125 64.26953125 C90.27261983 64.0642319 96.41824295 64.22780328 101.4453125 68.8046875 C106.68214505 74.81956375 106.37000321 80.77524477 105.875 88.375 C104.77271943 95.24305589 100.46183987 99.31755434 95.640625 104.078125 C93.63197531 106.13637158 93.63197531 106.13637158 94.09375 108.18359375 C94.3515625 108.90675781 94.609375 109.62992187 94.875 110.375 C95.02094876 112.99365761 95.10565443 115.5685938 95.125 118.1875 C95.1559375 119.21713867 95.1559375 119.21713867 95.1875 120.26757812 C95.23387509 126.39488675 93.85631723 131.03344327 89.8125 135.8125 C87.875 137.375 87.875 137.375 85.875 137.375 C85.90980469 137.95507812 85.94460937 138.53515625 85.98046875 139.1328125 C86.25173403 146.96075333 84.24925925 151.10134864 78.9375 156.875 C70.83416844 164.6499956 62.08075671 168.33088285 50.875 168.375 C51.37 169.014375 51.865 169.65375 52.375 170.3125 C54.44190198 174.53242488 55.01260812 177.77384613 53.875 182.375 C50.38333219 188.33238879 46.4530144 192.93810847 39.875 195.375 C37.13996529 195.4080851 34.58547923 195.32908612 31.875 195.125 C26.58342411 194.80523578 26.58342411 194.80523578 21.81640625 196.78125 C20.41352681 198.60289256 20.41352681 198.60289256 19.234375 200.5546875 C16.20348249 204.61329644 10.51785937 205.82738021 5.875 207.375 C-1.31275819 208.07317396 -6.31369898 207.79158878 -12.125 203.375 C-16.29320995 198.84640648 -19.12608129 194.07943297 -21.9375 188.625 C-22.34419922 187.85800781 -22.75089844 187.09101563 -23.16992188 186.30078125 C-26.125 180.64888393 -26.125 180.64888393 -26.125 178.375 C-27.07117188 178.62894531 -28.01734375 178.88289062 -28.9921875 179.14453125 C-65.72062301 188.78962335 -65.72062301 188.78962335 -76.23828125 182.7734375 C-81.75374157 178.68537375 -85.41381241 174.05600033 -87.125 167.375 C-87.35546875 163.8671875 -87.35546875 163.8671875 -87.3125 160.25 C-87.30605469 159.05117187 -87.29960938 157.85234375 -87.29296875 156.6171875 C-87.15761095 154.00446722 -86.89628695 151.85545882 -86.125 149.375 C-86.69347656 149.36082031 -87.26195313 149.34664062 -87.84765625 149.33203125 C-93.73472342 148.96838937 -97.93878396 147.67717771 -102.125 143.375 C-103.90144175 140.51622288 -104.37786471 138.40798446 -104.3125 135.0625 C-104.29960938 134.27746094 -104.28671875 133.49242187 -104.2734375 132.68359375 C-104.125 130.375 -104.125 130.375 -103.4375 126.625 C-103.06204965 122.7203164 -103.91778708 121.51603377 -106.125 118.375 C-108.72080974 110.29337901 -107.55930082 101.01097289 -104.125 93.375 C-102.30984649 90.5344926 -100.32650581 87.9256119 -98.125 85.375 C-99.31017741 82.87177775 -100.42993201 80.99614507 -102.1875 78.8125 C-104.97862732 75.30108176 -105.61823131 72.09071514 -105.51171875 67.6171875 C-104.4876002 61.67936883 -100.82752768 57.59882715 -96.0546875 54.16796875 C-93.90993752 52.80151457 -91.73860916 51.47559801 -89.5390625 50.19921875 C-88.74242188 49.59722656 -87.94578125 48.99523437 -87.125 48.375 C-87.125 45.17388885 -87.36360797 43.3410197 -88.125 40.375 C-89.07643084 32.6276346 -87.5309708 26.81706337 -83.125 20.375 C-78.38299174 14.90787883 -72.78152065 12.04021724 -65.6640625 11.0234375 C-54.90641709 10.4240379 -44.33316813 14.53485989 -36.125 21.375 C-35.7125 20.67375 -35.3 19.9725 -34.875 19.25 C-26.71868388 5.8503378 -16.76988893 -6.0565001 0 0 Z M-25.0625 17.1875 C-28.0149667 21.64316322 -29.79119654 25.9519264 -29.125 31.375 C-28.135 32.365 -28.135 32.365 -27.125 33.375 C-26.8125 36.375 -26.8125 36.375 -27.125 39.375 C-30.34873677 41.52415785 -31.39203674 41.75786803 -35.125 41.375 C-37.125 39.375 -37.125 39.375 -37.1875 36.25 C-38.76993778 29.70925718 -43.8060746 26.53714666 -49.265625 22.98046875 C-55.55610895 19.6837892 -62.16497615 19.47515523 -69.125 20.375 C-74.0272701 22.6111232 -76.82276725 25.50489225 -79.125 30.375 C-80.24137525 37.50613168 -78.81587399 43.31636954 -76 49.8671875 C-75.07025557 52.53190146 -74.96441133 54.57473515 -75.125 57.375 C-77.80162269 58.23151926 -79.64042866 58.34636507 -82.5 58.1875 C-88.08226389 58.47623779 -90.84591875 61.3408492 -95.0625 64.75 C-97.34363214 67.19533889 -97.34363214 67.19533889 -97.5 70.1875 C-95.64719747 74.48263314 -92.73361027 76.5440945 -89.05859375 79.34765625 C-87.125 81.375 -87.125 81.375 -86.61328125 83.88671875 C-87.27075014 87.08372397 -88.41301673 88.02243034 -90.875 90.125 C-96.76759749 95.71460932 -99.28883234 100.96970369 -99.5625 109.125 C-99.39303862 113.30894314 -98.96438956 116.12998336 -96.125 119.375 C-94.05545153 121.15844178 -94.05545153 121.15844178 -92.125 122.375 C-92.75066845 127.88088235 -92.75066845 127.88088235 -94.6875 130.4375 C-96.32396465 132.32379189 -96.32396465 132.32379189 -96.5 134.9375 C-96.03557423 137.95626752 -95.54919246 138.54821546 -93.125 140.375 C-89.77952008 141.31832534 -89.77952008 141.31832534 -86.0625 141.9375 C-79.33333333 143.16666667 -79.33333333 143.16666667 -77.125 145.375 C-76.94555664 147.23510742 -76.94555664 147.23510742 -77.03515625 149.48046875 C-77.05513672 150.29966797 -77.07511719 151.11886719 -77.09570312 151.96289062 C-77.1562173 153.67660053 -77.22121707 155.39015876 -77.29101562 157.10351562 C-77.43390026 163.4150748 -76.69423565 168.16345543 -72.625 173.25 C-66.47930683 177.85926988 -53.52660237 175.98786226 -46.27392578 174.97802734 C-41.70129806 174.18356739 -37.17114172 173.23622162 -32.63671875 172.25 C-29.07397445 171.49325863 -25.78264178 171.18406275 -22.125 171.375 C-21.568125 172.52097656 -21.01125 173.66695312 -20.4375 174.84765625 C-14.65144808 186.60855326 -14.65144808 186.60855326 -5.125 195.375 C-3.949375 196.3340625 -3.949375 196.3340625 -2.75 197.3125 C2.26059352 199.34059738 7.65470305 199.21377885 12.6875 197.3125 C15.62425961 194.71137006 17.93970918 191.79264123 19.875 188.375 C19.875 187.715 19.875 187.055 19.875 186.375 C20.58785156 186.519375 21.30070312 186.66375 22.03515625 186.8125 C31.89627174 189.09835671 31.89627174 189.09835671 41.25 186.4375 C44.20336132 183.60354682 44.9709491 180.89263547 45.1875 176.859375 C44.50439019 171.42865198 41.72580896 166.22580896 37.875 162.375 C37.75 159.75 37.75 159.75 37.875 157.375 C41.8961004 157.05754471 44.83137359 157.64917752 48.5625 159 C54.38702107 160.81032412 59.18506014 160.62451111 64.875 158.375 C69.97286775 154.9764215 74.17835035 151.4176132 75.875 145.375 C75.90530396 142.4696135 75.90530396 142.4696135 75.5 139.5625 C75.38914063 138.58667969 75.27828125 137.61085937 75.1640625 136.60546875 C75.02097656 135.50138672 75.02097656 135.50138672 74.875 134.375 C75.48988281 134.12105469 76.10476562 133.86710937 76.73828125 133.60546875 C77.54652344 133.26128906 78.35476562 132.91710937 79.1875 132.5625 C79.98800781 132.22605469 80.78851563 131.88960938 81.61328125 131.54296875 C83.9162568 130.35369468 85.31767654 129.44154351 86.875 127.375 C87.95656644 121.80811394 86.86962469 117.16639951 83.875 112.375 C83.545 112.045 83.215 111.715 82.875 111.375 C82.515625 108.59765625 82.515625 108.59765625 82.875 105.375 C84.921875 102.99609375 84.921875 102.99609375 87.625 100.8125 C94.37733481 95.27440084 98.31446472 90.70008511 99.25 81.8125 C98.80755771 77.75677898 97.72560373 76.22560373 94.875 73.375 C92.63792333 72.25646167 91.26123604 72.19580917 88.77734375 72.09375 C87.57561523 72.03767578 87.57561523 72.03767578 86.34960938 71.98046875 C84.65430361 71.90999415 82.95899106 71.83968239 81.26367188 71.76953125 C74.97565115 71.47565115 74.97565115 71.47565115 73.875 70.375 C73.7421875 68.51953125 73.7421875 68.51953125 73.75 66.1875 C73.74742187 65.43082031 73.74484375 64.67414063 73.7421875 63.89453125 C73.875 61.375 73.875 61.375 74.3671875 58.46875 C75.99394611 48.55803603 75.4895048 39.18402557 70.125 30.5625 C63.44448835 24.06755812 56.44864339 23.00701869 47.4453125 23.09765625 C37.98983061 23.83216305 29.73042168 27.65303522 21.53125 32.203125 C18.68924513 33.45695068 16.94226749 33.77416495 13.875 33.375 C11.24971 30.74971 11.20332223 28.74917808 10.5 25.125 C8.68356378 16.91940752 5.58660781 12.26888069 -1.125 7.375 C-2.98696946 6.45106836 -2.98696946 6.45106836 -5.125 6.375 C-6.3625 6.230625 -7.6 6.08625 -8.875 5.9375 C-16.27776926 6.08857692 -20.84275231 11.66738109 -25.0625 17.1875 Z " fill="#BA7B4F" transform="translate(131.125,26.625)"/>
<path d="M0 0 C7.87467219 5.90600414 13.8342392 14.84940707 15.25 24.6875 C15.82494405 34.66056796 15.85635201 41.99541747 9.8125 50.25 C4.43736461 56.24794705 -4.2855132 60.1699011 -12.265625 60.92578125 C-18.66567349 61.09949685 -23.52105911 60.57659889 -28.75 56.6875 C-33.11107579 52.42430371 -34.9164433 49.13538373 -35.0625 43.0625 C-35.00283703 35.95408294 -33.01803814 31.81582847 -28.9375 26.1875 C-25.76275085 24.01052915 -23.50427201 24.20968356 -19.75 24.6875 C-17.8125 25.6875 -17.8125 25.6875 -16.75 27.6875 C-16.23568265 30.4613464 -16.09699354 32.92971379 -16.75 35.6875 C-18.39821244 36.71763277 -20.06503702 37.71864628 -21.75 38.6875 C-22.16725678 42.31349422 -22.16725678 42.31349422 -21.75 45.6875 C-17.99355462 48.19179692 -14.09435544 48.40539179 -9.75 47.6875 C-4.84379173 45.99394959 -0.87472455 44.10994575 2.375 40 C4.66413027 31.33400683 3.33748401 25.22832757 -1 17.38671875 C-6.17129411 9.41045931 -13.67789878 6.07543216 -22.75 3.6875 C-31.60955187 2.60182081 -40.78014324 3.34414182 -48.328125 8.421875 C-51.07051902 10.98734038 -52.3933963 13.30517642 -54 16.6875 C-54.50015625 17.71875 -55.0003125 18.75 -55.515625 19.8125 C-59.84038716 29.88536377 -58.34786357 41.57576246 -54.75 51.6875 C-51.39920659 59.21409278 -45.65592144 64.19613981 -38.125 67.4375 C-24.0298203 72.00742154 -11.89574155 70.80018879 1.4375 64.5625 C12.34540359 58.74739988 22.86375334 51.03906033 27.0625 39 C27.47661225 37.5676588 27.87523231 36.13063529 28.25 34.6875 C28.476875 33.883125 28.70375 33.07875 28.9375 32.25 C29.88715814 24.46280321 29.06101358 17.28728913 27.25 9.6875 C26.63125 9.56375 26.0125 9.44 25.375 9.3125 C23.25 8.6875 23.25 8.6875 21.25 6.6875 C20.70412844 0.68291284 20.70412844 0.68291284 22.3125 -2.25 C25.60656803 -4.0564244 27.56472487 -3.99958519 31.25 -3.3125 C36.89999393 1.64271509 39.72843029 9.03437117 40.55126953 16.37524414 C40.68745213 19.25744088 40.71780781 22.11479215 40.6875 25 C40.67920166 26.01529785 40.67090332 27.0305957 40.66235352 28.07666016 C40.38933532 40.19244965 37.46092343 48.69941098 29.25 57.6875 C28.66476563 58.35265625 28.07953125 59.0178125 27.4765625 59.703125 C16.15370871 71.83816662 0.37148041 81.36442416 -16.46875 82.12109375 C-18.39569304 82.14438304 -20.32302368 82.14535027 -22.25 82.125 C-23.76436646 82.11364014 -23.76436646 82.11364014 -25.30932617 82.10205078 C-32.45484328 81.94350582 -38.41050302 81.17913345 -44.75 77.6875 C-45.59175781 77.275 -46.43351562 76.8625 -47.30078125 76.4375 C-55.93324108 71.82653511 -63.43402324 64.54366267 -66.97265625 55.28125 C-71.74589577 39.35446083 -72.19067579 24.02717573 -64.5 9 C-59.47049932 0.53790242 -52.41919588 -5.06940361 -42.8894043 -7.85668945 C-28.0433245 -11.01971935 -12.65150683 -8.10994028 0 0 Z " fill="#F397AA" transform="translate(139.75,94.3125)"/>
<path d="M0 0 C0.66 0 1.32 0 2 0 C2.03738281 1.134375 2.07476562 2.26875 2.11328125 3.4375 C2.41786901 16.49912149 2.41786901 16.49912149 8.3125 27.875 C13.31967532 31.83416188 18.66220565 32.33603282 24.875 32.625 C25.56335938 32.66367188 26.25171875 32.70234375 26.9609375 32.7421875 C28.64023246 32.83548166 30.32007767 32.91878238 32 33 C28.8750715 36.1249285 25.5481846 36.18245938 21.25 36.3125 C14.91974376 36.21024916 10.65964915 34.46555247 6.01953125 30.1640625 C0.45176983 24.17154403 -1.28541985 19.11807113 -1.1875 10.875 C-1.18105469 9.67617187 -1.17460938 8.47734375 -1.16796875 7.2421875 C-1.03261095 4.62946722 -0.77128695 2.48045882 0 0 Z " fill="#F6F0EC" transform="translate(45,176)"/>
<path d="M0 0 C0.66 0 1.32 0 2 0 C2.474375 0.845625 2.94875 1.69125 3.4375 2.5625 C6.83437535 8.02873619 13.374253 11.1871265 19 14 C20.70363822 14.22622081 22.41328701 14.40888473 24.125 14.5625 C25.03507812 14.64628906 25.94515625 14.73007813 26.8828125 14.81640625 C27.93082031 14.90728516 27.93082031 14.90728516 29 15 C24.51632565 17.98911623 20.25591876 17.58889846 15 17 C9.64229218 15.24729261 6.19420231 11.52511993 3 7 C1.84537228 4.69538161 0.9178657 2.41543604 0 0 Z " fill="#F8F4F2" transform="translate(111,217)"/>
<path d="M0 0 C0.34605141 5.76752349 0.32125966 10.0181105 -3 15 C-5.1875 16.875 -5.1875 16.875 -7 18 C-6.690625 17.236875 -6.38125 16.47375 -6.0625 15.6875 C-4.66197419 10.82685159 -4.34020266 6.03141827 -4 1 C-1 0 -1 0 0 0 Z " fill="#F6F0ED" transform="translate(217,164)"/>
<path d="M0 0 C3.43865477 3.43865477 4.16521971 4.70854013 4.3125 9.375 C4.34988281 10.14585937 4.38726562 10.91671875 4.42578125 11.7109375 C4 14 4 14 0 18 C0 12.06 0 6.12 0 0 Z " fill="#F5EFEB" transform="translate(181,195)"/>
<path d="M0 0 C0.66 0.33 1.32 0.66 2 1 C3.1577506 4.47325181 3.06866652 7.36067448 3 11 C2.34 11 1.68 11 1 11 C-0.32 8.03 -1.64 5.06 -3 2 C-2.01 1.34 -1.02 0.68 0 0 Z " fill="#F8F5F3" transform="translate(223,133)"/>
<path d="M0 0 C0.66 0.33 1.32 0.66 2 1 C1.51789062 1.47050781 1.03578125 1.94101563 0.5390625 2.42578125 C-0.40839844 3.35970703 -0.40839844 3.35970703 -1.375 4.3125 C-2.00148438 4.92738281 -2.62796875 5.54226562 -3.2734375 6.17578125 C-5.18086607 8.08812528 -5.18086607 8.08812528 -7 11 C-6.85969405 7.98342209 -6.70648535 5.76158727 -4.59765625 3.48828125 C-3.11095765 2.26743934 -1.55865102 1.12753478 0 0 Z " fill="#EDE3D6" transform="translate(41,87)"/>
</svg>
